<svg width="1061" height="480" viewBox="0 0 1061 480" fill="none" xmlns="http://www.w3.org/2000/svg">
<path d="M531.71 415.712L574.771 400.02L532.356 479.094C531.982 479.792 530.984 479.797 530.601 479.104L486.538 399.4L531.71 415.712Z" fill="#242323"/>
<path d="M452.604 335.045L531.501 366.712L609.143 335.943L582.537 385.542L531.71 403.212L479.077 385.905L449.323 332.083C449.323 332.083 447.106 328.746 444.101 323.836L452.604 335.045Z" fill="#242323"/>
<path d="M417.375 199.298V358.212L362.965 385.101L329.407 346.426L417.375 199.298C417.325 199.375 344.221 311.179 273.226 350.318C234.959 371.414 167.81 387.661 167.81 387.661L0 231.502L75.2559 153.458L417.375 199.298Z" fill="#242323"/>
<path d="M1060.08 229.316L891.476 384.616C891.293 384.571 824.358 367.997 786.252 346.734C715.467 307.237 642.945 195.084 642.877 194.979L730.903 348.375L697.148 386.878L642.877 359.712V194.979L985.226 150.889L1060.08 229.316Z" fill="#242323"/>
<path d="M502.662 187.712C502.874 187.712 503.082 187.78 503.253 187.905L530.882 208.135C531.241 208.398 531.732 208.392 532.084 208.119L558.219 187.921C558.394 187.786 558.609 187.712 558.83 187.712H628.686C629.155 187.712 629.559 188.036 629.655 188.495C631.282 196.281 643.966 260.289 629.489 298.013C626.532 305.718 621.345 315.178 617.251 322.174L531.501 354.212L442.903 321.863C438.716 314.91 433.488 305.625 430.489 298.013C415.674 260.405 428.663 196.253 430.32 188.488C430.418 188.031 430.821 187.712 431.289 187.712H502.662Z" fill="#242323"/>
<path d="M586.886 1.42383L573.125 47.7217L599.035 66.3838C599.948 67.0415 600.489 68.0983 600.489 69.2236V133.222C600.489 134.304 599.989 135.325 599.134 135.988L530.493 189.206C529.218 190.195 527.432 190.184 526.169 189.179L459.31 135.969C458.475 135.305 457.989 134.296 457.989 133.229V69.2041C457.989 68.1182 458.493 67.0933 459.354 66.4307L483.58 47.7715L470.089 1.41016L474.89 0.0136719L488.335 46.2119H568.357L582.093 0L586.886 1.42383Z" fill="#242323"/>
</svg>
