<svg width="1340" height="495" viewBox="0 0 1340 495" fill="none" xmlns="http://www.w3.org/2000/svg">
<g clip-path="url(#clip0_190_284)">
<rect width="1340" height="495" fill="#FFA526"/>
<path fill-rule="evenodd" clip-rule="evenodd" d="M1024.32 57.7979V82.9697L1046.17 95.5889L1068.17 82.8809L1090.17 95.5889L1112.18 82.8809L1134.33 95.6787V96.3174L1155.83 83.9043L1177.83 96.6133L1199.83 83.9043L1221.99 96.7021V121.875L1243.83 134.494L1265.84 121.786L1287.84 134.494L1309.84 121.786L1332 134.583V160.179L1309.92 172.933L1310 172.977V198.148L1332 210.857V235.006L1354 247.714V273.31L1332 286.018V311.19L1331.92 311.235L1354 323.988V349.583L1331.84 362.381L1309.84 349.672L1287.99 362.291V385.929L1265.99 398.637V423.81L1265.91 423.854L1287.99 436.607V462.202L1265.84 475L1243.83 462.291L1221.83 475L1199.83 462.291L1177.83 475L1155.67 462.202V437.03L1133.82 424.41L1111.82 437.119L1089.82 424.41L1067.82 437.119L1067.16 436.739L1066.39 437.182V461.845L1066.32 461.889L1088 474.384V499.461L1066.24 512L1044.63 499.549L1023.02 512L1001.41 499.549L979.804 512L958.044 499.461V474.798L936.587 462.434L914.978 474.886L893.369 462.434L871.76 474.886L850 462.347V438.987L828.413 426.549L806.804 439L785.044 426.461V401.798L763.587 389.434L741.978 401.886L720.369 389.434L698.76 401.886L677 389.347V364.27L698.685 351.773L698.608 351.73V327.067L677 314.616V289.539L698.556 277.117L697.369 276.434L675.76 288.886L654 276.347V251.27L675.685 238.773L675.608 238.73V214.067L654 201.616V176.539L675.76 164L697.369 176.451L718.978 164L740.587 176.451L762.195 164L783.956 176.539V201.202L805.413 213.565L827.021 201.114L848.631 213.565L870.239 201.114L892 213.653V238.73L870.392 251.182V275.845L870.315 275.889L892 288.384V313.461L870.444 325.881L871.631 326.565L893.239 314.114L913.645 325.872V323.988L935.724 311.234L935.646 311.19V286.019L913.645 273.31V247.714L935.801 234.917L957.803 247.625L979.806 234.917L1001.81 247.625L1023.81 234.917L1045.97 247.714V272.887L1067.82 285.506L1089.82 272.798L1111.82 285.506L1133.67 272.886V248.138L1111.67 235.429V211.279L1089.66 198.571V197.932L1068.17 210.346L1046.17 197.637L1024.17 210.346L1002.01 197.548V172.375L980.163 159.756L958.161 172.464L936.158 159.756L914.156 172.464L892 159.667V134.071L914.079 121.317L914.002 121.273V96.1016L892 83.3926V57.7979L914.156 45L936.158 57.708L958.161 45L980.163 57.708L1002.17 45L1024.32 57.7979ZM959.049 474.963V498.882L979.804 510.841L1000.56 498.882V474.963L979.804 463.004L959.049 474.963ZM1002.27 474.963V498.882L1023.02 510.841L1043.78 498.882V474.963L1023.02 463.004L1002.27 474.963ZM1045.48 474.963V498.882L1066.24 510.841L1087 498.882V474.963L1066.24 463.004L1045.48 474.963ZM1156.69 437.198V461.611L1177.83 473.817L1198.96 461.61V437.198L1177.83 424.992L1156.69 437.198ZM1200.7 437.198V461.611L1221.83 473.817L1242.96 461.61V437.198L1221.83 424.992L1200.7 437.198ZM1244.7 437.198V461.611L1265.84 473.817L1286.97 461.61V437.198L1265.84 424.992L1244.7 437.198ZM851.005 438.433V461.768L871.76 473.727L892.516 461.767V438.583L871.631 426.549L851.005 438.433ZM915 426.461L894.223 438.433V461.768L914.978 473.727L935.733 461.767V437.849L915 425.901V426.461ZM937.44 437.849V461.768L958.195 473.727L978.951 461.767V437.849L958.195 425.889L937.44 437.849ZM980.658 437.347V461.266L1001.41 473.225L1022.17 461.266V437.348L1001.41 425.388L980.658 437.347ZM1023.88 437.347V461.266L1044.63 473.225L1065.39 461.266V437.348L1044.63 425.388L1023.88 437.347ZM786.049 401.963V425.882L806.804 437.841L827.56 425.882V401.963L806.804 390.004L786.049 401.963ZM829.267 401.963V425.882L850 437.828V437.27L870.777 425.296V401.963L850.021 390.004L829.267 401.963ZM872.614 401.888V424.151L893.369 436.11L913.995 424.225V401.963L893.239 390.004L872.614 401.888ZM915.832 400.232V424.151L936.587 436.11L957.342 424.15V400.232L936.587 388.272L915.832 400.232ZM959.049 400.232V424.151L979.804 436.11L1000.56 424.15V400.232L979.804 388.272L959.049 400.232ZM1002.27 400.232V424.151L1023.02 436.11L1043.78 424.15V400.232L1023.02 388.272L1002.27 400.232ZM1090.69 399.76V423.73L1111.82 435.937L1132.95 423.729V399.76L1111.82 387.554L1090.69 399.76ZM1155.98 387.464L1134.69 399.76V423.73L1155.82 435.937L1176.96 423.729V399.317L1155.98 387.2V387.464ZM1046.68 399.76V423.73L1067.18 435.568L1087 424.15V400.232L1066.41 388.367L1046.68 399.76ZM1178.7 398.806V423.218L1199.83 435.425L1220.96 423.218V398.806L1199.83 386.599L1178.7 398.806ZM1222.7 398.806V423.218L1243.83 435.425L1264.97 423.218V398.806L1243.83 386.599L1222.7 398.806ZM1067.41 387.788L1088 399.653V424.276L1088.95 423.729V399.76L1067.82 387.554L1067.41 387.788ZM1045.48 400.232V424.151L1045.66 424.252V400.173L1045.62 400.151L1045.48 400.232ZM893.392 388.845L893.315 388.889L914.124 400.879V400.232L893.392 388.285V388.845ZM678.005 364.849V388.768L698.76 400.727L719.516 388.767V364.849L698.76 352.889L678.005 364.849ZM721.223 364.849V388.768L741.978 400.727L762.733 388.767V364.849L741.978 352.889L721.223 364.849ZM764.44 364.849V388.768L785.195 400.727L805.951 388.767V364.849L785.195 352.889L764.44 364.849ZM807.658 364.347V388.266L828.413 400.225L849.168 388.266V364.348L828.413 352.388L807.658 364.347ZM850.876 388.266L871.608 400.211V400.067L850.876 388.12V388.266ZM979.806 362.381L957.803 349.672L936.132 362.188L936.587 362.451L958.195 350L979.956 362.539V387.202L1001.41 399.565L1023.02 387.114L1035.09 394.069L1023.66 387.464V362.292L1001.81 349.672L979.806 362.381ZM851.005 364.271V387.037L871.76 398.996L892.386 387.11V364.348L871.631 352.388L851.005 364.271ZM915 351.73L894.223 363.702V387.037L914.978 398.996L935.733 387.036V363.118L915 351.171V351.73ZM937.44 363.117V387.037L958.195 398.996L978.951 387.036V363.118L958.195 351.158L937.44 363.117ZM1024.68 362.46V386.873L1045.64 398.981L1045.66 398.973V398.727L1066.95 386.43V362.46L1045.81 350.254L1024.68 362.46ZM1068.68 362.46V385.337L1089.82 397.543L1110.95 385.337V362.46L1089.82 350.254L1068.68 362.46ZM1112.69 362.46V385.337L1133.82 397.543L1154.96 385.337V362.46L1133.82 350.254L1112.69 362.46ZM1156.69 360.924V385.337L1177.83 397.543L1198.96 385.337V360.925L1177.83 348.718L1156.69 360.924ZM1200.7 360.924V385.337L1221.83 397.543L1242.96 385.337V361.879L1221.68 349.583V348.807L1200.7 360.924ZM1244.7 361.879V385.337L1265.84 397.543L1286.97 385.337V361.879L1265.84 349.672L1244.7 361.879ZM699.614 327.232V351.151L720.369 363.11L741.124 351.15V327.232L720.369 315.272L699.614 327.232ZM742.832 327.232V351.151L763.587 363.11L784.342 351.15V327.232L763.587 315.272L742.832 327.232ZM786.049 327.232V351.151L806.804 363.11L827.56 351.15V327.232L806.804 315.272L786.049 327.232ZM829.267 327.232V351.151L850 363.098V362.539L870.777 350.565V327.232L850.021 315.272L829.267 327.232ZM872.484 327.232V350.417L893.369 362.451L913.995 350.565V349.785L913.645 349.583V327.03L893.239 315.272L872.484 327.232ZM1133.98 349.071L1133.9 349.116L1154.96 361.277V360.925L1133.98 348.807V349.071ZM914.668 324.579V326.462L915 326.653V349.184L935.801 361.198L956.935 348.991V324.579L935.801 312.373L914.668 324.579ZM958.673 324.579V348.992L979.806 361.198L1000.94 348.991V324.579L979.806 312.373L958.673 324.579ZM1002.68 324.579V348.992L1023.81 361.198L1044.94 348.991V324.579L1023.81 312.373L1002.68 324.579ZM1310.71 324.579V348.992L1331.84 361.198L1352.98 348.991V324.579L1331.84 312.373L1310.71 324.579ZM1266.71 324.579V348.038L1287.99 360.333V361.108L1308.97 348.991V324.579L1287.84 312.373L1266.71 324.579ZM1177.98 324.41V347.625L1199.83 360.244L1221.68 347.624V324.411L1199.83 311.791L1177.98 324.41ZM1222.7 324.579V348.038L1243.83 360.244L1264.97 348.037V324.579L1243.83 312.373L1222.7 324.579ZM1046.68 324.067V347.456L1067.82 359.662L1088.95 347.456V324.067L1067.82 311.861L1046.68 324.067ZM1090.69 324.067V347.456L1111.82 359.662L1132.95 347.456V324.067L1111.82 311.861L1090.69 324.067ZM1134.69 323.997V347.456L1155.82 359.662L1176.96 347.456V323.998L1155.82 311.791L1134.69 323.997ZM827.227 325.881L828.413 326.565L849.816 314.231L848.631 313.549L827.227 325.881ZM678.005 290.117V314.037L698.76 325.996L719.516 314.036V290.118L698.76 278.158L678.005 290.117ZM721.223 290.117V314.037L741.978 325.996L762.733 314.036V313.857L762.044 313.461V289.721L741.978 278.158L721.223 290.117ZM784.502 325.597L785.195 325.996L805.951 314.036V313.858L805.413 313.549L784.502 325.597ZM764.44 290.117V313.684L783.804 324.841L804.56 312.882V289.315L785.195 278.158L764.44 290.117ZM806.267 288.963V289.142L806.956 289.539V313.278L827.021 324.841L847.777 312.882V288.963L827.021 277.004L806.267 288.963ZM849.484 288.963V312.882L870.239 324.841L890.995 312.882V288.963L870.239 277.004L849.484 288.963ZM1200.7 286.698V311.111L1221.83 323.317L1242.96 311.11V286.698L1221.83 274.492L1200.7 286.698ZM1156.69 286.698V310.156L1177.98 322.452V323.228L1198.96 311.11V286.698L1177.83 274.492L1156.69 286.698ZM936.67 286.187V310.599L957.803 322.806L978.937 310.599V286.187L957.803 273.979L936.67 286.187ZM980.675 286.187V310.599L1001.81 322.806L1022.94 310.599V286.187L1001.81 273.979L980.675 286.187ZM1244.7 286.187V310.599L1265.84 322.806L1286.97 310.599V286.187L1265.84 273.979L1244.7 286.187ZM1288.71 286.187V310.599L1309.84 322.806L1330.97 310.599V286.187L1309.84 273.979L1288.71 286.187ZM1024.68 286.187V310.599L1045.66 322.717V322.452L1066.95 310.156V286.187L1045.81 273.979L1024.68 286.187ZM1068.68 286.187V310.156L1089.82 322.363L1110.95 310.156V286.187L1089.82 273.979L1068.68 286.187ZM1112.69 286.698V310.156L1133.82 322.363L1154.96 310.156V286.698L1133.82 274.492L1112.69 286.698ZM719.183 288.767L720.369 289.451L741.773 277.117L740.587 276.434L719.183 288.767ZM763.049 288.963V289.141L763.587 289.451L784.496 277.402L783.804 277.004L763.049 288.963ZM655.005 251.849V275.768L675.76 287.727L696.516 275.767V251.849L675.76 239.889L655.005 251.849ZM698.223 251.849V275.768L718.978 287.727L739.733 275.767V251.849L718.978 239.889L698.223 251.849ZM741.44 251.849V275.768L762.195 287.727L782.951 275.767V251.849L762.195 239.889L741.44 251.849ZM784.658 251.347V275.266L805.413 287.225L826.168 275.266V251.348L805.413 239.388L784.658 251.347ZM827.876 251.347V275.266L848.631 287.225L869.386 275.266V251.348L848.631 239.388L827.876 251.347ZM914.668 248.306V272.718L935.801 284.925L956.935 272.718V248.306L935.801 236.099L914.668 248.306ZM958.673 248.306V272.718L979.806 284.925L1000.94 272.718V248.306L979.806 236.099L958.673 248.306ZM1002.68 248.306V272.718L1023.81 284.925L1044.94 272.718V248.306L1023.81 236.099L1002.68 248.306ZM1134.69 248.306V272.718L1155.82 284.925L1176.96 272.718V248.306L1155.82 236.099L1134.69 248.306ZM1178.7 248.306V272.718L1199.83 284.925L1220.96 272.718V248.748L1199.67 236.452V236.188L1178.7 248.306ZM1222.7 248.748V272.718L1243.83 284.925L1264.97 272.718V248.748L1243.83 236.542L1222.7 248.748ZM1266.71 248.748V272.718L1287.84 284.925L1308.97 272.718V248.748L1287.84 236.542L1266.71 248.748ZM1332 236.452L1310.71 248.748V272.718L1331.84 284.925L1352.98 272.718V248.306L1332 236.188V236.452ZM676.614 214.232V238.151L697.369 250.11L718.124 238.15V214.232L697.369 202.272L676.614 214.232ZM719.832 214.232V238.151L740.587 250.11L761.342 238.15V214.232L740.587 202.272L719.832 214.232ZM763.049 214.232V238.151L783.804 250.11L804.56 238.15V214.232L783.804 202.272L763.049 214.232ZM806.267 214.232V238.151L827.021 250.11L847.777 238.15V214.232L827.021 202.272L806.267 214.232ZM849.484 214.232V238.151L870.239 250.11L890.995 238.15V214.232L870.239 202.272L849.484 214.232ZM1244.7 211.449V235.419L1265.84 247.625L1286.97 235.418V211.448L1265.84 199.242L1244.7 211.449ZM1288.71 211.449V235.419L1309.84 247.625L1330.97 235.418V211.448L1309.84 199.242L1288.71 211.449ZM1112.69 210.867V234.837L1133.82 247.043L1154.96 234.837V210.866L1133.82 198.661L1112.69 210.867ZM1156.69 210.867V234.837L1177.83 247.043L1198.96 234.837V210.866L1177.83 198.661L1156.69 210.867ZM1200.7 211.449V234.837L1221.83 247.043L1242.96 234.837V211.448L1221.83 199.242L1200.7 211.449ZM655.005 177.117V201.037L675.76 212.996L696.516 201.036V177.118L675.76 165.158L655.005 177.117ZM698.223 177.117V201.037L718.978 212.996L739.733 201.036V177.118L718.978 165.158L698.223 177.117ZM741.44 177.117V201.037L762.195 212.996L782.951 201.036V177.118L762.195 165.158L741.44 177.117ZM1266.71 173.568V197.98L1287.84 210.187L1308.97 197.98V173.567L1287.84 161.361L1266.71 173.568ZM1090.69 197.98L1111.67 210.098V210.049L1090.69 197.932V197.98ZM1222.7 173.568V197.538L1243.99 209.833V210.098L1264.97 197.98V173.567L1243.83 161.361L1222.7 173.568ZM1134.69 173.568V197.537L1155.82 209.744L1176.96 197.537V173.567L1155.83 161.361L1134.69 173.568ZM1178.7 173.568V197.538L1199.83 209.744L1220.96 197.537V173.567L1199.83 161.361L1178.7 173.568ZM1003.04 172.543V196.956L1024.17 209.162L1045.3 196.956V172.544L1024.17 160.337L1003.04 172.543ZM1047.04 172.543V196.956L1068.17 209.162L1089.31 196.956V172.544L1068.17 160.337L1047.04 172.543ZM1091.04 173.361V196.956L1112.18 209.162L1132.95 197.162V173.567L1111.82 161.361L1091.04 173.361ZM1156.69 135.688V160.099L1177.83 172.306L1198.96 160.1V135.687L1177.83 123.48L1156.69 135.688ZM1112.69 135.688V159.45L1134.33 171.952V172.01L1154.96 160.1V135.687L1133.82 123.48L1112.69 135.688ZM1200.7 135.175V159.587L1221.83 171.794L1242.96 159.588V135.175L1221.83 122.969L1200.7 135.175ZM1244.7 135.175V159.587L1265.84 171.794L1286.97 159.588V135.175L1265.84 122.969L1244.7 135.175ZM1288.71 135.175V159.587L1309.84 171.794L1330.97 159.588V135.175L1309.84 122.969L1288.71 135.175ZM893.023 134.662V159.075L914.156 171.281L935.29 159.075V134.663L914.156 122.456L893.023 134.662ZM937.028 134.662V159.075L958.161 171.281L979.294 159.075V134.663L958.161 122.456L937.028 134.662ZM981.033 134.662V159.075L1002.17 171.281L1023.3 159.075V134.663L1002.17 122.456L981.033 134.662ZM1025.04 134.15V158.563L1046.17 170.77L1067.3 158.562V134.151L1046.17 121.944L1025.04 134.15ZM1069.04 134.15V158.563L1090.17 170.77L1111.31 158.562V134.799L1089.66 122.298V122.239L1069.04 134.15ZM1134.69 97.2939V121.706L1155.83 133.913L1176.96 121.707V97.2939L1155.83 85.0879L1134.69 97.2939ZM1178.7 97.2939V121.706L1199.83 133.913L1220.96 121.707V97.2939L1199.83 85.0879L1178.7 97.2939ZM915.025 96.2695V120.683L936.158 132.889L957.292 120.682V96.2695L936.158 84.0635L915.025 96.2695ZM959.03 96.2695V120.683L980.163 132.889L1001.3 120.682V96.2695L980.163 84.0635L959.03 96.2695ZM1003.04 96.2695V120.683L1024.17 132.889L1045.3 120.682V96.2695L1024.17 84.0635L1003.04 96.2695ZM1047.04 96.2695V120.683L1068.17 132.889L1089.31 120.682V96.2695L1068.17 84.0635L1047.04 96.2695ZM1091.04 97.0869V120.683L1112.18 132.889L1132.95 120.889V97.2939L1111.82 85.0879L1091.04 97.0869ZM1112.14 84.0869L1133.31 96.3174V96.2695L1112.18 84.0635L1112.14 84.0869ZM893.023 58.3887V82.8018L914.156 95.0078L935.29 82.8008V58.3887L914.156 46.1826L893.023 58.3887ZM937.028 58.3887V82.8018L958.161 95.0078L979.294 82.8008V58.3887L958.161 46.1826L937.028 58.3887ZM981.033 58.3887V82.8018L1002.17 95.0078L1023.3 82.8008V58.3887L1002.17 46.1826L981.033 58.3887Z" fill="#333333" fill-opacity="0.3"/>
<path fill-rule="evenodd" clip-rule="evenodd" d="M115.956 -4.46094V19.1123L137.369 31.4512L158.978 19L180.587 31.4512L202.195 19L223.956 31.5391V32.6279L224 32.6533V56.2266L245.413 68.5654L267.021 56.1143L288.631 68.5654L310 56.252V31.5391L331.76 19L353.369 31.4512L374.978 19L396.587 31.4512L418.195 19L439.956 31.5391V56.2021L461.413 68.5654L483.021 56.1143L504.631 68.5654L526.239 56.1143L548 68.6533V93.7305L526.392 106.182V130.845L526.315 130.889L548 143.384V168.461L526.239 181L504.631 168.549L483.021 181L461.413 168.549L439.804 181L418.044 168.461V143.798L396.587 131.434L374.978 143.886L353.369 131.434L332 143.747V168.461L310.239 181L288.631 168.549L267.021 181L245.413 168.549L223.804 181L202.044 168.461V144.887L180.631 132.549L159.021 145L137.413 132.549L115.804 145L94.0439 132.461V131.371L94 131.347V107.772L72.5869 95.4336L50.9775 107.886L29.3691 95.4336L7.75977 107.886L-14 95.3467V70.2695L7.68457 57.7734L7.6084 57.7305V33.0674L-14 20.6162V-4.46094L7.75977 -17L29.3691 -4.54883L50.9775 -17L72.5869 -4.54883L94.1953 -17L115.956 -4.46094ZM224 132.461L203.049 144.533V167.882L223.804 179.841L244.56 167.882V143.963L224 132.116V132.461ZM246.267 143.963V167.882L267.021 179.841L287.777 167.882V143.963L267.021 132.004L246.267 143.963ZM289.484 143.963V167.882L310.239 179.841L330.995 167.882V143.963L310.239 132.004L289.484 143.963ZM419.049 143.963V167.882L439.804 179.841L460.56 167.882V143.963L439.804 132.004L419.049 143.963ZM462.267 143.963V167.882L483.021 179.841L503.777 167.882V143.963L483.021 132.004L462.267 143.963ZM505.484 143.963V167.882L526.239 179.841L546.995 167.882V143.963L526.239 132.004L505.484 143.963ZM95.0488 107.963V130.792L115.76 142.727L136.516 130.767V107.938L115.804 96.0039L95.0488 107.963ZM138.267 107.963V130.792L158.978 142.727L179.733 130.767V107.938L159.021 96.0039L138.267 107.963ZM181.484 107.963V130.792L202.195 142.727L222.951 130.767V107.938L202.239 96.0039L181.484 107.963ZM311.005 106.849V130.768L331.76 142.727L352.516 130.767V106.849L331.76 94.8887L311.005 106.849ZM354.223 106.849V130.768L374.978 142.727L395.733 130.767V106.849L374.978 94.8887L354.223 106.849ZM397.44 106.849V130.768L418.195 142.727L438.951 130.767V106.849L418.195 94.8887L397.44 106.849ZM224.658 106.347V130.266L245.413 142.225L266.168 130.266V106.348L245.413 94.3877L224.658 106.347ZM267.876 106.347V130.266L288.631 142.225L309.386 130.266V106.348L288.631 94.3877L267.876 106.347ZM440.658 106.347V130.266L461.413 142.225L482.168 130.266V106.348L461.413 94.3877L440.658 106.347ZM483.876 106.347V130.266L504.631 142.225L525.386 130.266V106.348L504.631 94.3877L483.876 106.347ZM-12.9951 70.8486V94.7676L7.75977 106.727L28.5156 94.7666V70.8486L7.75977 58.8887L-12.9951 70.8486ZM30.2227 70.8486V94.7676L50.9775 106.727L71.7334 94.7666V70.8486L50.9775 58.8887L30.2227 70.8486ZM73.4404 70.8486V94.7676L94 106.613V106.27L114.951 94.1953V70.8486L94.1953 58.8887L73.4404 70.8486ZM116.658 70.3467V93.1758L137.369 105.11L158.124 93.1504V70.3223L137.413 58.3877L116.658 70.3467ZM159.876 70.3467V93.1758L180.587 105.11L201.342 93.1504V70.3223L180.631 58.3877L159.876 70.3467ZM224 57.7305L203.049 69.8027V93.1514L223.804 105.11L244.56 93.1504V69.2324L224 57.3848V57.7305ZM246.267 69.2324V93.1514L267.021 105.11L287.777 93.1504V69.2324L267.021 57.2725L246.267 69.2324ZM289.484 69.2324V93.1514L310.239 105.11L330.995 93.1504V69.2324L310.239 57.2725L289.484 69.2324ZM332.614 69.2324V93.1514L353.369 105.11L374.124 93.1504V69.2324L353.369 57.2725L332.614 69.2324ZM375.832 69.2324V93.1514L396.587 105.11L417.342 93.1504V69.2324L396.587 57.2725L375.832 69.2324ZM419.049 69.2324V93.1514L439.804 105.11L460.56 93.1504V69.2324L439.804 57.2725L419.049 69.2324ZM462.267 69.2324V93.1514L483.021 105.11L503.777 93.1504V69.2324L483.021 57.2725L462.267 69.2324ZM505.484 69.2324V93.1514L526.239 105.11L546.995 93.1504V69.2324L526.239 57.2725L505.484 69.2324ZM8.61426 33.2324V57.1514L29.3691 69.1104L50.124 57.1504V33.2324L29.3691 21.2725L8.61426 33.2324ZM51.832 33.2324V57.1514L72.5869 69.1104L93.3418 57.1504V33.2324L72.5869 21.2725L51.832 33.2324ZM95.0488 33.2324V56.0615L115.76 67.9961L136.516 56.0361V33.207L115.804 21.2725L95.0488 33.2324ZM138.267 33.2324V56.0615L158.978 67.9961L179.733 56.0361V33.207L159.021 21.2725L138.267 33.2324ZM181.484 33.2324V56.0615L202.195 67.9961L222.951 56.0361V33.207L202.239 21.2725L181.484 33.2324ZM311.005 32.1172V56.0371L331.76 67.9961L352.516 56.0361V32.1182L331.76 20.1582L311.005 32.1172ZM354.223 32.1172V56.0371L374.978 67.9961L395.733 56.0361V32.1182L374.978 20.1582L354.223 32.1172ZM397.44 32.1172V56.0371L418.195 67.9961L438.951 56.0361V32.1182L418.195 20.1582L397.44 32.1172ZM-12.9951 -3.88281V20.0371L7.75977 31.9961L28.5156 20.0361V-3.88184L7.75977 -15.8418L-12.9951 -3.88281ZM30.2227 -3.88281V20.0371L50.9775 31.9961L71.7334 20.0361V-3.88184L50.9775 -15.8418L30.2227 -3.88281ZM73.4404 -3.88281V20.0371L94 31.8828V31.5391L114.951 19.4658V-3.88184L94.1953 -15.8418L73.4404 -3.88281Z" fill="#333333" fill-opacity="0.3"/>
</g>
<defs>
<clipPath id="clip0_190_284">
<rect width="1340" height="495" fill="white"/>
</clipPath>
</defs>
</svg>
