<svg width="903" height="840" viewBox="0 0 903 840" fill="none" xmlns="http://www.w3.org/2000/svg">
<path fill-rule="evenodd" clip-rule="evenodd" d="M258.603 25V74.1738L301.301 98.8252L344.301 74L387.301 98.8252L430.301 74L473.603 99V100.248L515.603 76L558.603 100.826L601.603 76L644.903 101V150.174L687.603 174.826L730.603 150L773.603 174.826L816.603 150L859.903 175V225L816.753 249.914L816.903 250V299.174L859.903 324V371.174L902.903 396V446L859.903 470.825V520L859.752 520.087L902.903 545V595L859.602 620L816.602 595.174L773.903 619.825V666L730.903 690.825V740L730.752 740.087L773.903 765V815L730.602 840L687.602 815.174L644.602 840L601.602 815.174L558.602 840L515.301 815V765.826L472.602 741.174L429.602 766L386.602 741.174L343.602 766L300.301 741V693.826L257.301 669V619.826L214.602 595.174L171.602 620L128.602 595.174L85.6016 620L42.3008 595V545L85.4512 520.086L85.3008 520V470.826L42.3008 446V396L85.6016 371L128.602 395.825L171.602 371L214.602 395.825L257.602 371L300.903 396V445.174L343.602 469.825L386.602 445L429.602 469.825L472.301 445.173V396.826L429.301 372V324.825L386.301 300V298.751L344.301 323L301.301 298.174L258.301 323L215 298V248.826L172.301 224.174L129.301 249L86.3008 224.174L43.3008 249L0 224V174L43.1504 149.086L43 149V99.8262L0 75V25L43.3008 0L86.3008 24.8252L129.301 0L172.301 24.8252L215.301 0L258.603 25ZM517.301 766.154V813.845L558.602 837.689L599.903 813.844V766.155L558.602 742.31L517.301 766.154ZM603.301 766.154V813.845L644.602 837.689L685.903 813.844V766.155L644.602 742.31L603.301 766.154ZM689.301 766.154V813.845L730.602 837.689L771.903 813.844V766.155L730.602 742.31L689.301 766.154ZM302.301 693.019V739.845L343.602 763.689L384.903 739.844V693.019L343.602 669.174L302.301 693.019ZM388.301 693.019V739.845L429.602 763.689L470.903 739.844V693.019L429.602 669.174L388.301 693.019ZM515.903 669L474.301 693.019V739.845L515.602 763.689L556.903 739.844V692.155L515.903 668.483V669ZM560.301 691.154V738.845L601.602 762.689L642.903 738.844V691.155L601.602 667.31L560.301 691.154ZM646.301 691.154V738.845L687.602 762.689L728.903 738.844V691.155L687.602 667.31L646.301 691.154ZM259.301 620.154V667.845L300.301 691.516V691L341.903 666.979V620.155L300.602 596.31L259.301 620.154ZM345.301 620.154V664.845L386.602 688.689L427.903 664.844V620.155L386.602 596.31L345.301 620.154ZM431.301 620.154V664.845L472.602 688.689L513.903 664.844V620.155L472.602 596.31L431.301 620.154ZM517.301 617.154V664.845L558.602 688.689L599.903 664.844V617.155L558.602 593.31L517.301 617.154ZM603.301 617.154V664.845L644.602 688.689L685.903 664.844V619.019L644.301 595V593.482L603.301 617.154ZM689.301 619.019V664.845L730.602 688.689L771.903 664.844V619.019L730.602 595.174L689.301 619.019ZM472.903 594L472.752 594.087L513.903 617.845V617.155L472.903 593.483V594ZM44.3008 546.154V593.845L85.6016 617.689L126.903 593.844V546.155L85.6016 522.31L44.3008 546.154ZM130.301 546.154V593.845L171.602 617.689L212.903 593.844V546.155L171.602 522.31L130.301 546.154ZM216.301 546.154V593.845L257.602 617.689L298.903 593.844V546.155L257.602 522.31L216.301 546.154ZM818.301 546.154V593.845L859.602 617.689L900.903 593.844V546.155L859.602 522.31L818.301 546.154ZM732.301 546.154V591.98L773.903 616V617.515L814.903 593.844V546.155L773.602 522.31L732.301 546.154ZM558.903 545.825V591.174L601.602 615.825L644.301 591.173V545.826L601.602 521.174L558.903 545.825ZM646.301 546.154V591.98L687.602 615.825L728.903 591.979V546.155L687.602 522.31L646.301 546.154ZM302.301 545.154V590.845L343.602 614.689L384.903 590.844V545.155L343.602 521.31L302.301 545.154ZM388.301 545.154V590.845L429.602 614.689L470.903 590.844V545.155L429.602 521.31L388.301 545.154ZM474.301 545.018V590.845L515.602 614.689L556.903 590.844V545.019L515.602 521.174L474.301 545.018ZM603.301 472.154V519.845L644.602 543.689L685.903 519.844V472.155L644.602 448.31L603.301 472.154ZM517.301 472.154V517.98L558.903 542V543.515L599.903 519.844V472.155L558.602 448.31L517.301 472.154ZM87.3008 471.154V518.845L128.602 542.689L169.903 518.844V471.155L128.602 447.31L87.3008 471.154ZM173.301 471.154V518.845L214.602 542.689L255.903 518.844V471.155L214.602 447.31L173.301 471.154ZM689.301 471.154V518.845L730.602 542.689L771.903 518.844V471.155L730.602 447.31L689.301 471.154ZM775.301 471.154V518.845L816.602 542.689L857.903 518.844V471.155L816.602 447.31L775.301 471.154ZM259.301 471.154V518.845L300.301 542.516V542L341.903 517.98V471.155L300.602 447.31L259.301 471.154ZM345.301 471.154V517.98L386.602 541.825L427.903 517.979V471.155L386.602 447.31L345.301 471.154ZM431.301 472.154V517.98L472.602 541.825L513.903 517.979V472.155L472.602 448.31L431.301 472.154ZM44.3008 397.154V444.845L85.6016 468.689L126.903 444.844V397.155L85.6016 373.31L44.3008 397.154ZM130.301 397.154V444.845L171.602 468.689L212.903 444.844V397.155L171.602 373.31L130.301 397.154ZM216.301 397.154V444.845L257.602 468.689L298.903 444.844V397.155L257.602 373.31L216.301 397.154ZM474.301 397.154V444.845L515.602 468.689L556.903 444.844V397.155L515.602 373.31L474.301 397.154ZM560.301 397.154V444.845L601.602 468.689L642.903 444.844V398.019L601.301 374V373.482L560.301 397.154ZM646.301 398.02V444.845L687.602 468.689L728.903 444.844V398.019L687.603 374.175L646.301 398.02ZM732.301 398.02V444.845L773.602 468.689L814.903 444.844V398.019L773.603 374.175L732.301 398.02ZM859.903 374L818.301 398.019V444.845L859.602 468.689L900.903 444.844V397.155L859.903 373.483V374ZM689.301 325.156V371.98L730.602 395.825L771.903 371.979V325.155L730.603 301.311L689.301 325.156ZM775.301 325.156V371.98L816.602 395.825L857.903 371.979V325.155L816.603 301.311L775.301 325.156ZM431.301 324.02V370.845L472.602 394.689L513.903 370.844V324.019L472.603 300.175L431.301 324.02ZM517.301 324.02V370.845L558.602 394.689L599.903 370.844V324.019L558.603 300.175L517.301 324.02ZM603.301 325.156V370.845L644.602 394.689L685.903 370.844V325.155L644.603 301.311L603.301 325.156ZM732.301 251.156V298.845L773.603 322.69L814.903 298.846V251.155L773.603 227.311L732.301 251.156ZM646.301 251.156V297.98L687.903 322V322.517L728.903 298.846V251.155L687.603 227.311L646.301 251.156ZM388.301 298.845L429.301 322.516V322.422L388.301 298.751V298.845ZM474.301 251.156V297.979L515.602 321.825L556.903 297.979V251.155L515.603 227.311L474.301 251.156ZM560.301 251.156V297.98L601.602 321.825L642.903 297.979V251.155L601.603 227.311L560.301 251.156ZM217 249.154V296.845L258.301 320.689L299.603 296.844V249.155L258.301 225.31L217 249.154ZM303 249.154V296.845L344.301 320.689L385.603 296.844V249.155L344.301 225.31L303 249.154ZM389 250.752V296.845L430.301 320.689L470.903 297.247V251.155L429.603 227.311L389 250.752ZM517.301 177.156V224.845L558.603 248.69L599.903 224.846V177.155L558.603 153.311L517.301 177.156ZM431.301 177.156V223.577L473.603 248V248.112L513.903 224.846V177.155L472.603 153.311L431.301 177.156ZM603.301 176.156V223.845L644.603 247.69L685.903 223.846V176.155L644.603 152.311L603.301 176.156ZM689.301 176.156V223.845L730.603 247.69L771.903 223.846V176.155L730.603 152.311L689.301 176.156ZM775.301 176.156V223.845L816.603 247.69L857.903 223.846V176.155L816.603 152.311L775.301 176.156ZM2 175.154V222.845L43.3008 246.689L84.6025 222.844V175.155L43.3008 151.31L2 175.154ZM88 175.154V222.845L129.301 246.689L170.603 222.844V175.155L129.301 151.31L88 175.154ZM174 175.154V222.845L215.301 246.689L256.603 222.844V175.155L215.301 151.31L174 175.154ZM260 174.154V221.845L301.301 245.689L342.603 221.844V174.155L301.301 150.31L260 174.154ZM346 174.154V221.845L387.301 245.689L428.603 221.844V175.422L386.301 151V150.887L346 174.154ZM474.301 102.156V149.845L515.603 173.69L556.903 149.846V102.155L515.603 78.3105L474.301 102.156ZM560.301 102.156V149.845L601.603 173.69L642.903 149.846V102.155L601.603 78.3105L560.301 102.156ZM45 100.154V147.845L86.3008 171.689L127.603 147.844V100.155L86.3008 76.3096L45 100.154ZM131 100.154V147.845L172.301 171.689L213.603 147.844V100.155L172.301 76.3096L131 100.154ZM217 100.154V147.845L258.301 171.689L299.603 147.844V100.155L258.301 76.3096L217 100.154ZM303 100.154V147.845L344.301 171.689L385.603 147.844V100.155L344.301 76.3096L303 100.154ZM389 101.752V147.845L430.301 171.689L470.903 148.247V102.155L429.603 78.3105L389 101.752ZM430.22 76.3555L471.603 100.248V100.155L430.301 76.3096L430.22 76.3555ZM2 26.1543V73.8447L43.3008 97.6895L84.6025 73.8438V26.1553L43.3008 2.30957L2 26.1543ZM88 26.1543V73.8447L129.301 97.6895L170.603 73.8438V26.1553L129.301 2.30957L88 26.1543ZM174 26.1543V73.8447L215.301 97.6895L256.603 73.8438V26.1553L215.301 2.30957L174 26.1543Z" fill="#333333"/>
</svg>
